<?xml version="1.0" encoding="utf-8"?>
<!-- Generator: Adobe Illustrator 23.1.0, SVG Export Plug-In . SVG Version: 6.00 Build 0)  -->
<svg version="1.1" id="Layer_1" xmlns="http://www.w3.org/2000/svg" xmlns:xlink="http://www.w3.org/1999/xlink" x="0px" y="0px"
	 viewBox="0 0 438.7 179.8" style="enable-background:new 0 0 438.7 179.8;" xml:space="preserve">
<style type="text/css">
	.st0{fill:#006837;}
	.st1{fill:none;stroke:#127F3E;stroke-width:10;stroke-miterlimit:10;}
</style>
<path d="M65.5,1050.2v-13.1l13.4-2.5l0.3-92.2l-13.4-2.6v-13.1h13.4l30.6,0.1l36,89.4h0.5l35.4-89.2l44.5,0.1v13.1l-13.5,2.5
	l-0.3,92.2l13.5,2.6v13.1l-48.3-0.1v-13.1l14.2-2.5l0.1-28.8l0.3-54l-0.4-0.1l-38.5,95.7h-15.5l-39.1-95.3l-0.4,0.1l1,52.1
	l-0.1,30.2l14.7,2.6v13.1L65.5,1050.2z"/>
<path d="M275.9,1050.7v-13.1l13.5-2.5l0.3-92.2l-13.5-2.6v-13.1h13.5l21.4,0.1h14.5v13.1l-14.5,2.5l-0.3,91.5l38.6,0.1l1.5-18.7
	h16.4l-0.1,35L275.9,1050.7z"/>
<g>
	<path class="st0" d="M8.8,177.8L9.3,7.6l35,0.1v16.2H30.7l-0.5,137.8h13.6v16.1H8.8z"/>
	<path d="M61,150.3v-13.1l13.4-2.5l0.3-92.2l-13.4-2.6V26.8h13.4l30.6,0.1l36,89.4h0.5l35.4-89.2l44.5,0.1v13.1l-13.5,2.5l-0.3,92.2
		l13.5,2.6v13.1l-48.3-0.1v-13.1l14.2-2.5l0.1-28.8l0.3-54l-0.4-0.1l-38.5,95.6h-15.5L94.2,52.4l-0.4,0.1l1,52.1l-0.1,30.2l14.7,2.6
		v13.1L61,150.3z"/>
	<path d="M250.5,179.8l-11-6.6c2.4-4,4.3-8,5.5-12.3c1.3-4.2,1.9-8.9,1.9-13.9v-16.1l19.9,0.1l-0.1,15.4c0,6.2-1.6,12.3-4.6,18.3
		C259.1,170.7,255.2,175.7,250.5,179.8z"/>
	<path d="M289.3,150.9v-13.1l13.5-2.5l0.3-92.2l-13.5-2.6V27.4h13.5l21.4,0.1H339v13.1l-14.5,2.5l-0.3,91.5l38.6,0.1l1.5-18.7h16.4
		l-0.1,35L289.3,150.9z"/>
	<path class="st0" d="M396.3,178.8v-16.1H410l0.4-137.9h-13.7V8.6l35,0.1l-0.4,170.2L396.3,178.8z"/>
</g>
<text transform="matrix(1 2.774419e-03 -2.774419e-03 1 -1017.2652 748.9853)" style="font-family:'RobotoSlab-Medium'; font-size:173.7415px; letter-spacing:7;">[M,L]</text>
<text transform="matrix(1 2.774419e-03 -2.774419e-03 1 230.2894 917.4003)" style="font-family:'RobotoSlab-Medium'; font-size:173.7415px; letter-spacing:7;">...</text>
<line class="st1" x1="60.3" y1="-593.3" x2="334.3" y2="-593.3"/>
</svg>
